<svg width="143" height="65" fill="none" xmlns="http://www.w3.org/2000/svg"><g clip-path="url(#a)" fill="#EBEBDC"><path d="M15.076 32.568c0-.237.286-.356.875-.356 0-.17-.118-.288-.354-.305 0-.203.118-.322.354-.356.521.44.942.66 1.228.66v.17h-.168c-.169 0-.404-.101-.707-.305v.305c.151.085.286.153.42.22h1.7c0-.355-.067-.592-.168-.711h.353c0 .22.067.457.202.712h16.994l-.169-.932h-.454v-.136c.101 0 .236-.034.42-.118l-1.884-10.777H0c.993 6.473 4.021 11.607 15.193 11.946-.033-.017-.084-.017-.117-.017zm.706-2.525h-.168v-.305h.168v.305zm1.06 1.847l-.353-.17c.118-.169.168-.406.168-.711h.354c0 .119-.068.17-.169.17 0 .237.118.355.354.355-.017.237-.135.356-.354.356zm12.502-3.236c-.202 0-.32-.12-.354-.356v-.136h.354l.353.136c0 .237-.118.356-.353.356zm.875-3.542v-.305h.353c0 .203-.118.305-.353.305zm.538-.983h-.522v-.356h.169c.235.017.353.136.353.356zm-.353-1.016v-.356h.168v.356h-.168zm4.744 9.099h.169v.305h-.169v-.305zm-.874-2.355h.168v.305h-.168v-.305zm-.875-1.678h.353v.136h-.353v-.136zm-.539-.678h-.353v-.17h.353v.17zm-.69-3.185h.354v.305h-.354v-.305zm-.538-1.373v.356c-.202 0-.32-.119-.353-.356h.353zm-.353 2.39h.353v.49h-.353v-.49zm0 3.32h.168v.306h-.168v-.305zm-.169-2.524h-.353v-.136h.353v.136zm-1.228-5.05c.168 0 .404-.101.707-.305h.168c0 .153.05.322.168.525v.306c-.353-.17-.521-.356-.521-.526-.118 0-.169.068-.169.22h-.353v-.22zm0 6.253c-.353-.17-.522-.356-.522-.525.118 0 .287-.051.522-.17v.695zm-.538-3.016h.353v.305c-.202 0-.32-.102-.353-.305zm-1.75-.661c.353 0 .521-.34.521-1.017.118 0 .169.051.169.136.117 0 .286-.051.521-.136.118.322.404.491.875.491 0 .153-.404.492-1.228 1.017v.492h.353v.17l-.168.846c-.202 0-.32-.101-.353-.305h.353v-.22l-.522-.983.169-.356c-.118 0-.169-.05-.169-.135-.201 0-.32.101-.353.305l.168.356c-.117 0-.168.05-.168.135l-.521-.305v-.356l-.169-.305c.101-.017.286.051.522.17zm-6.36 1.152h.168v.356h-.168v-.356zm-.522 7.76h-.168a1.366 1.366 0 00-.707-.169v-.17h.354c.235.12.403.17.521.17v.17zm-1.767-3.863c.118 0 .169.051.169.136l.521-.305h.169c0 .17.117.457.353.847-.236.119-.404.17-.522.17v.17c.169.321.354.49.522.49 0 .12-.067.17-.168.17 0 .203.168.305.521.305l-.168.305c-.942.356-1.413.593-1.413.712l-.875-.526.706-1.152-.353-.17c.37-.474.538-.864.538-1.152zm-.706 1.813h-.354v-.135h.354v.135zm-.707-1.321h.522v.17h-.522v-.17zm.185 1.813c-.117 0-.168.135-.168.407h-.168c0-.39-.068-.678-.169-.882l-.353.17h-.168v-.661c.488 0 .841.322 1.026.966zm-1.06-2h-.521v-.17h.521v.17zm-.168-.66c-.202 0-.32-.102-.353-.305h.353v.305zm-.538-4.525l.168.356c-.387.204-.74.305-1.06.305l-.168-.305c.387-.237.74-.356 1.06-.356zm-2.289 8.252h-.353c.27-.559.74-1.084 1.413-1.559 0 .17.286.407.875.661-.168.356-.353.526-.521.526l-.354-.17c0 .068-.353.237-1.06.542zm6.579 4.304c0 .56-.42.898-1.228 1.017 0-.119-.118-.17-.353-.17.235-.338.387-.61.47-.847h-.857l-.135.848c0 .237.235.355.707.355v.492l-.169.847h-.353c0-.118.05-.288.168-.491l-.168-.356h.168c0-.17-.117-.288-.353-.305-.202 0-.32.101-.353.305v.356l.168.305H17.6c0-.119-.068-.288-.169-.492l.169-.305c-.236-.508-.354-.864-.354-1.067h.354v-.305h-.354v-.17h-2.288c0 .271.303.424.875.492v.17c-.27 0-.505.067-.707.169a2.332 2.332 0 01-.488-.848H10.55c1.076 6.71 12.67 11.98 25.473 11.98h2.558l-2.103-11.98H20.24zm-4.055 2.034v-.492h.169c0 .085.05.255.168.492h-.337zm1.06 1.321h-.168c0-.169.118-.288.353-.355h.169c0 .237-.118.355-.354.355zm2.642-1.016h-.168v-.492h.168v.492zm2.81-1.508h-.522c0-.238-.118-.356-.353-.356 0-.17.117-.288.353-.305.353.17.522.339.522.491v.17zm9.085 2.796h-.622v-.17h.622v.17zm.169-1.424c-.118 0-.169-.05-.169-.17-.32 0-.588.069-.79.17h-.22v-.17c.236 0 .573-.169 1.01-.524.27 0 .404.118.404.355l-.235.34zm1.413-1.05h.623v.355c-.27-.118-.471-.169-.623-.169v-.186zm1.01 3.71h-.404v-.169h.404v.17zm0-1.592h-.623v-.356c.27.118.471.17.623.17v.186zm107.582-14.929c.488-1.27.807-2.643 1.026-4.083h-33.685l-2.103 11.98h19.35c9.456 0 13.51-3.17 15.344-7.71h-.252v-.17h.32v-.017zm-23.926-.982h.404v.525c-.236 0-.37-.119-.404-.356v-.17zm-1.8 1.592h.403v.17h-.403v-.17zm.387 6.033v.17h-.404v-.17h.404zm-.791-5.321h.404v.17h-.404v-.17zm-3.214-4.778c.151 0 .353-.051.623-.17.202.356.403.526.572.526l.403-.17c.202 1.305.623 1.949 1.229 1.949v.17h-.219l-1.01-.357-.403.17c0-.475-.185-.712-.572-.712 0-.119.05-.17.168-.17 0-.287-.269-.474-.791-.525v-.711zm1.817 2.999h-.404v-.17c.27 0 .404-.118.404-.355h.404l.623.355c0 .238-.135.356-.404.356h-.404v-.356c-.151 0-.219.051-.219.17zm-5.821 7.98h-.219c-.387-.169-.572-.355-.572-.524v-.17h.168c.404.17.623.356.623.525v.17zm.185-7.624h.841v.356h-.841v-.356zm1.009 4.795h-.791v-.525h.169c.286.118.504.17.622.17v.355zm1.01 0h-.219c-.269 0-.404-.119-.404-.356l.404-.17.219.357v.169zm.622-1.78v-.355h.404c-.017.237-.151.356-.404.356zm.572-.88h.219l.791.17v.169h-.168l-.842-.17v-.17zm3.82 5.134c-.404.17-.623.356-.623.525-1.733-.203-2.591-.44-2.591-.711.438 0 .774-.051 1.01-.17 2.136.085 3.213.39 3.213.881-.673-.068-1.009-.254-1.009-.525zm2.204-7.083h.404v.17h-.404v-.17zm.622 6.914h-.218v-.526h.218v.526zm0-1.271v.034h-.387v-.17c0-.203.135-.322.404-.356v.492h-.017zm0-7.422v.525h-.218l-.404-1.423c.151 0 .219-.051.219-.17l.403.17c0 .118-.067.17-.218.17l.218.728zm17.129-1.678h.404c0 .238-.135.356-.404.356h-.404c.017-.203.151-.322.404-.356zm-.791 2.83h-.387v-.17h.404v.17h-.017zm.219 1.237v-.17c.404 0 .74-.05.976-.169l.218.356h-1.194v-.017zm2.826-1.406l-1.009.17v-.357h1.009v.187zm.959-.543h-1.8c0-.203.135-.322.404-.355l.437.169.169-.356c.235.119.572.17 1.009.17l-.219.372zm.236-.88h-.404c0-.204.135-.323.404-.357v.356zm.168 0v-.357c.286 0 .438.12.438.356h-.438zm1.414 2.49h-.169v-.525h.169l.403.17c-.016.237-.151.355-.403.355zm.218-.898c-.235 0-.37-.119-.403-.356h.168c.269 0 .404.119.404.356h-.169zm-32.069 12.64c-.269.95-.522 1.424-.791 1.424h-.168a1.15 1.15 0 00-.219-.711h.219c-.252-.255-.505-.627-.774-1.153h-.724l-2.103 11.98h2.558c12.804 0 24.397-5.27 25.474-11.98h-24.397c.286.288.588.44.925.44zm-2.204 6.559h-.404v-.17h.404v.17zm0-3.372h-.404v-.356h.387v.355h.017zm1.009.88c.27 0 .404.12.404.356l1.01-.169h.218v1.423h-.841l.219-.355v-.526h-1.01c-.235 0-.37-.118-.403-.355 0-.22.134-.34.403-.373zm-.403 1.966c.319.237.588.356.79.356v.356a1.99 1.99 0 00-.79.17l-.404-.882h.404zm0 1.237v-.17h.79c0 .17.27.407.791.712-.084-.017-.606-.186-1.581-.542zm2.035.712h.404v.17h-.404v-.17zm.573 2.118h-.404v-.356h.404v.356zm1.396-.17c0 .238-.135.356-.404.356v-.525h.404v.17zm.791-2.66h.437v.356c-.218 0-.37-.119-.437-.356zm.841 1.424h-.404v-.17H113v.17zm0-2.491h-.404c-.235 0-.387-.119-.437-.356H113v.356zm0-1.237h-.219l-.403-.17c.269-.288.403-.525.403-.711H113v.88zm1.986-4.965h.218v.881l-1.009.17h-.219c.673-.441 1.01-.797 1.01-1.051zm-2.205 1.237v-.356h.791v.17c0 .237-.134.355-.404.355h-1.009v-.355l.437.169h.185v.017zm-1.009-1.237h.404v.525c-.236 0-.37-.118-.404-.356v-.17zm-.572 2.66c.319.237.589.356.791.356v.17h-.219c-.269-.12-.454-.17-.572-.17v-.356zm-.404 1.068h.404v.17h-.404v-.17zm0 2.66h.404v.17h-.404v-.17zm-.606.339h-.218c-.236 0-.371-.119-.404-.356v-.356h.791l-.169.712zm-.791-4.253l.169.356-.404.17h-.219v-.17c.067-.238.219-.356.454-.356zM94.24 64.966a2.988 2.988 0 002.288-.508 3.076 3.076 0 001.262-1.983l8.766-50.02a3.109 3.109 0 00-.505-2.305 3.05 3.05 0 00-1.969-1.27L91.665 6.675v-.542c0-1.694-1.363-3.084-3.062-3.084H76.219l-.084-.508C75.85.864 74.251-.254 72.602.05l-16.91 3h-1.867c-.724 0-1.38.253-1.902.677L38.345 6.134a2.991 2.991 0 00-1.968 1.27 3.031 3.031 0 00-.505 2.305l1.918 10.947 2.103 11.98.673 3.863 2.103 11.98 1.313 7.473h.168l.05.355h-.15l.605 3.457a3.068 3.068 0 003.012 2.542c.168 0 .353-.017.538-.051l9.27-1.644h.051l2.776-.491v-.034h.169l.202-.034h5.62l27.947 4.914zm-45.917-6.778L39.859 9.845l10.904-1.932v49.004c0 .288.033.56.117.83l-2.557.441zM44.268 54.8l-.354.051.135-.881.168-.05.05.88zm-1.279-9.489h-.353l-.05-.711c.201.118.504.169.925.135.033.119-.034.17-.169.17.034.237.169.355.404.355-.118.17-.168.526-.134 1.068-.32-.237-.572-.339-.74-.305l.168-.356-.05-.356zm-1.682-13.437h.168l.05.712h-.168l-.05-.712zm1.632 12.54c-.202 0-.337-.12-.404-.357l-.05-.525.79.136v.355c.05.238-.067.373-.336.39zm.134-1.102c-.202.034-.488-.373-.841-1.203.168-.356.37-.526.572-.526l.168-.05.27 1.237c.016.135-.051.305-.169.542zm-.303-1.898c-.235-.119-.42-.17-.572-.17v-.355l.135-1.237h.353c.034.474.169.864.438 1.203-.236 0-.354.203-.354.559zm-.084-1.966l-.79-.305c.117-.237.168-.491.168-.745h.353l.27.88v.17zm-.622-1.237l-.05-.711h.352l.051.711h-.353zm-.084-.88v-.357h.168l.05.356h-.218zm.084-2.136l-.169.051-.05-.356.219-.05v.355zm-.438-1.186l-.05-.881h.168c0 .119.067.288.219.491.017.22-.101.356-.337.39zm2.238 13.386c0 .238-.118.356-.353.356l-.05-.355h.403zM56.029 6.982h9.96l-8.311 47.445c.067.051.117.153.117.289h-.15l-.102.61c-.05.254-.05.508-.033.745h-2.827v-1.237h-.05v-.491h.05V6.98h1.346zm-.64-1.372v-.17c.236 0 .354.119.354.356v.17c-.202 0-.32-.119-.354-.356zm33.332 54.375L77.683 58.02l-2.995-.526-5.62-1-2.456-.44-3.163-.559-1.952-.339 8.43-48.19.033-.17.909.17 2.12.372 2.036.356 2.036.356 10.65 1.898 1.952.339 1.952.338 10.903 1.932L94.055 60.9l-5.334-.915zM52.226 18.47c.219.102.37.17.488.17h.034v.355h-.522v-.525zm-.353-5.643c0-.203.118-.322.353-.356v.526l-.353-.17zm.522 3.016v-.355h.168v.355h-.169zm.185 4.22h.168v.355h-.168v-.355zm.168-11.658l.168-.661h.168v.17c.017.321-.1.49-.336.49zm1.06 11.471c0 .356.118.525.353.525l-.168.712h-.353c0-.118-.068-.288-.169-.525l.169-.712h.168zM53.623 8.27v-.356h.168v.356h-.168zm.707 3.152v.17h-.354v-.17h.354zm-.354-2.847V8.27c.236 0 .354.102.354.305h-.354zm.286 41.38v.169c-.353-.17-.521-.34-.521-.492v-.17h.353c0 .136.05.289.168.492zm2.995 6.574v-.356h.168v.356h-.168zm.353-.712v-.305h.522v.17c-.1 0-.286.05-.522.135zm-3.348 2.22v-.356h.353v1.016c-.201 0-.32-.101-.353-.304v-.356zm3.533-.187a2.38 2.38 0 01.202-.305c.101-.118.22-.186.32-.186v.796l-.219-.135-.303-.17zm-.891.543c.117 0 .286-.068.521-.22v.525h-.168a.464.464 0 01-.219-.051.373.373 0 01-.134-.254zm21.57 2.61v-.357h.353c0 .237-.117.356-.353.356zM55.861 5.015l-.825.152v.271h-.168v-.237l-.354.05v.357h-.353V5.32l-.353.067v.407h-.168a.559.559 0 00-.101-.356l-.808.153v-.288c0-.153.118-.271.27-.271h.117v-.288c.219 0 .32.101.353.288h.135l.219-.119v.119h.437a.5.5 0 01.27-.119v.119h1.329v-.017zM43.04 46.19l.05.356h-.168l-.05-.356h.168zm-.101 1.424l-.05-.356c0-.203.117-.339.352-.407l.05.356c0 .237-.117.373-.352.407zm.437 1.016h.168l.404.17c-.118.203-.168.44-.168.712h-.354l-.05-.882zM44 49.868v.17h-.354v-.17H44zm-.438 2.305l-.084-1.424.168-.355.404.17-.303 1.592h-.185v.017zm.353 3.016v-.17l.354-.05.05.17-.404.05zm18.626 4.524h-.168v-.339h.168v.339z"/><path d="M91.649 30.992l-1.952-.339-1.952-.339-1.716-.288-1.531-9.048-.135-.882-3.836 7.473-.724 1.39-1.06-.153-2.035-.339-6.647-1.135 5.385 5.558v-.136l.875.17v-.407h.403v.22c0 .542-.134.898-.403 1.034l.673.695-.926 1.813-3.752 7.303 6.495-3.27.774-.39 1.043-.525.774-.39.017.017 1.363 1.406.016.017 4.964 5.117.707.729-.707-4.897-.74-5.185.74-.373.909-.457 1.043-.526 1.951-.982 4.274-2.152-4.29-.73zm-15.699.949c-.235-.034-.353-.153-.353-.356l.353-.22c.236 0 .354.135.354.406l-.354.17zm-.117 6.642l-.05-.356h.167l.05.356h-.167zm2.641.932l-.353-.17-.404.22.27.882v.17c-.32 0-.59-.356-.791-1.068.117 0 .235-.17.353-.525l.353.17.168-.052.404-.17v.543zm-.134-1.27v-.17h.403v.17h-.403zm2.944-6.66v.577h-.168v-.577h.168zm-2.053-1.678v.526h-.168l-.05-.526h.218zm2.221 4.914c-.151 0-.403-.322-.74-.982.151-.204.219-.458.219-.746h.168c.202.424.387.712.522.847.067.085.134.119.185.119v.356c-.034 0-.068 0-.101.017-.168.034-.253.17-.253.39zm3.063 1.068l-.354-.17v-.711h.168c0 .288.118.593.354.88h-.168zm1.766-.187l-.875-.711c0-.119.05-.288.169-.525 0-.119-.118-.17-.354-.17v-.356h.354c0 .17.235.475.706.881v.882zm.707 2.491h-.353v-.355h.353v.355zm.522-3.016h-.169c-.235 0-.353-.118-.353-.356l-.353.17c0-.119-.068-.288-.169-.525v-.356h.169c0 .237.286.525.875.88v.187zm.891-3.1h.875c.202 0 .32.118.354.355v.17c-.27 0-.505-.051-.707-.17-.236 0-.353.17-.353.526h-.354c.118-.204.185-.492.185-.882zm.69 2.744c-.118 0-.168-.05-.168-.169l-.353.17v-.526l.168-.356c-.118 0-.168-.05-.168-.17-.118 0-.169.069-.169.17-.235 0-.353-.118-.353-.356.236 0 .589-.118 1.06-.355 0 .525.05.88.168 1.067-.117 0-.185.17-.185.525zm.606-1.406c-.05.05-.135.068-.252.068v-.525l.252.118.1.05c0 .137-.033.238-.1.289zm.64-.457h-.354c0-.204.118-.322.353-.356v.356zm1.75-.882h-.17v-.355h.17v.355zm.437.187c-.034 0-.068-.017-.085-.017l.085-.17.084-.17c.202 0 .32.12.353.357v.17a1.199 1.199 0 00-.437-.17z"/></g><defs><clipPath id="a"><path fill="#fff" d="M0 0h143v65H0z"/></clipPath></defs></svg>